<?xml version="1.0" encoding="utf-8"?>
<svg viewBox="52.628 131.702 146.379 158.087" width="146.379" height="158.087" xmlns="http://www.w3.org/2000/svg">
  <path d="M 118.478 259.858 L 107.63 259.858 L 107.63 250.898 L 96.877 250.898 L 96.877 241.178 L 100.837 240.818 C 103.157 240.578 104.317 239.458 104.317 237.458 L 104.317 181.658 L 97.477 181.298 L 97.477 171.098 L 107.777 171.098 L 107.777 161.496 L 118.625 161.496 L 118.625 171.098 L 128.292 171.098 L 128.292 161.379 L 139.14 161.379 L 139.14 171.64 C 151.205 173.475 157.237 179.975 157.237 191.138 C 157.237 198.498 153.557 204.098 146.197 207.938 C 150.917 209.138 154.617 211.338 157.297 214.538 C 159.977 217.738 161.317 221.898 161.317 227.018 C 161.317 234.778 158.697 240.698 153.457 244.778 C 149.827 247.604 145.055 249.452 139.14 250.32 L 139.14 260.072 L 128.292 260.072 L 128.292 250.898 L 118.478 250.898 Z M 130.837 214.538 L 118.957 214.538 L 118.957 239.618 L 130.237 239.618 C 140.637 239.618 145.837 235.378 145.837 226.898 C 145.837 222.898 144.537 219.838 141.937 217.718 C 139.337 215.598 135.637 214.538 130.837 214.538 Z M 128.677 182.138 L 118.957 182.138 L 118.957 203.858 L 127.837 203.858 C 132.797 203.858 136.457 202.838 138.817 200.798 C 141.177 198.758 142.357 195.898 142.357 192.218 C 142.357 188.538 141.177 185.938 138.817 184.418 C 136.457 182.898 133.077 182.138 128.677 182.138 Z M 59.42 210.913 C 55.148 216.78 52.628 224.006 52.628 231.819 C 52.628 251.457 68.548 267.377 88.186 267.377 C 89.975 267.377 91.734 267.245 93.453 266.989 C 98.581 280.324 111.512 289.789 126.653 289.789 C 141.719 289.789 154.596 280.419 159.776 267.19 C 160.983 267.314 162.208 267.377 163.448 267.377 C 183.086 267.377 199.007 251.457 199.007 231.819 C 199.007 223.607 196.223 216.044 191.547 210.025 C 196.02 204.079 198.672 196.683 198.672 188.669 C 198.672 169.031 182.752 153.111 163.113 153.111 C 161.302 153.111 159.521 153.246 157.781 153.507 C 152.405 140.699 139.744 131.702 124.981 131.702 C 109.793 131.702 96.83 141.224 91.734 154.623 C 90.567 154.507 89.383 154.448 88.186 154.448 C 68.548 154.448 52.628 170.368 52.628 190.006 C 52.628 197.82 55.148 205.045 59.42 210.913 Z" style="fill: rgb(235, 37, 37);"/>
</svg>